<?xml version="1.0" encoding="UTF-8" standalone="no" ?>
<!DOCTYPE svg PUBLIC "-//W3C//DTD SVG 1.1//EN" "http://www.w3.org/Graphics/SVG/1.1/DTD/svg11.dtd">
<svg xmlns="http://www.w3.org/2000/svg" xmlns:xlink="http://www.w3.org/1999/xlink" version="1.1" width="1100" height="400" viewBox="0 0 1100 400" xml:space="preserve">
<desc>Created with Fabric.js 4.6.0</desc>
<defs>
</defs>
<g transform="matrix(0.3 0 0 0.3 880.54 217.38)" id="mCzJqSAv20QluW44rBFlH"  >
<g style="" vector-effect="non-scaling-stroke"   >
		<g transform="matrix(1 0 0 1 5.27 369.91)" id="HvV-5bhD6LU3JXKUKZ4ai"  >
<path style="stroke: none; stroke-width: 1; stroke-dasharray: none; stroke-linecap: butt; stroke-dashoffset: 0; stroke-linejoin: miter; stroke-miterlimit: 4; fill: rgb(155,219,239); fill-rule: nonzero; opacity: 1;" vector-effect="non-scaling-stroke"  transform=" translate(-680.27, -1055.41)" d="M 1059.433594 1055.40625 C 1059.433594 1128.703125 889.628906 1187.761719 680.273438 1187.761719 C 470.917969 1187.761719 301.113281 1128.175781 301.113281 1055.40625 C 301.113281 982.109375 470.917969 923.050781 680.273438 923.050781 C 889.628906 923.050781 1059.433594 982.109375 1059.433594 1055.40625 Z M 1059.433594 1055.40625" stroke-linecap="round" />
</g>
		<g transform="matrix(1 0 0 1 5.27 369.91)" id="7sCZNUJCRT7tK_Q2zf6r9" clip-path="url(#CLIPPATH_2)"  >
<clipPath id="CLIPPATH_2" >
	<path transform="matrix(1 0 0 1 -4.34 135.67) translate(-675.94, -1191.07)" id="clip2" clip-path="url(#undefined)" d="M 517.324219 1292.695312 C 525.761719 1332.242188 546.328125 1355.445312 566.894531 1369.15625 L 783.632812 1369.15625 C 810 1351.226562 836.894531 1317.476562 836.894531 1254.203125 L 836.894531 1090.734375 C 836.894531 1090.734375 840.058594 1050.132812 877.5 1036.949219 C 877.5 1036.949219 899.121094 1021.660156 875.917969 1013.222656 C 875.917969 1013.222656 773.085938 1004.785156 773.085938 1089.152344 L 773.085938 1213.597656 C 773.085938 1213.597656 777.304688 1259.472656 753.046875 1278.457031 L 753.046875 1124.484375 C 753.046875 1124.484375 754.628906 1075.445312 779.941406 1056.988281 C 779.941406 1056.988281 796.816406 1026.933594 759.902344 1034.839844 C 759.902344 1034.839844 689.238281 1044.859375 686.074219 1127.648438 L 684.492188 1285.839844 L 667.617188 1285.839844 L 666.035156 1127.648438 C 662.871094 1045.386719 592.207031 1034.839844 592.207031 1034.839844 C 555.292969 1026.40625 572.167969 1056.988281 572.167969 1056.988281 C 597.480469 1075.445312 599.0625 1124.484375 599.0625 1124.484375 L 599.0625 1280.039062 C 574.804688 1262.636719 579.023438 1213.597656 579.023438 1213.597656 L 579.023438 1089.152344 C 579.023438 1004.785156 476.191406 1013.222656 476.191406 1013.222656 C 452.460938 1021.660156 474.609375 1036.949219 474.609375 1036.949219 C 511.523438 1050.660156 515.214844 1090.734375 515.214844 1090.734375 L 515.214844 1205.160156 Z M 517.324219 1292.695312" stroke-linecap="round" />
</clipPath>
<path style="stroke: none; stroke-width: 1; stroke-dasharray: none; stroke-linecap: butt; stroke-dashoffset: 0; stroke-linejoin: miter; stroke-miterlimit: 4; fill: rgb(124,186,229); fill-rule: nonzero; opacity: 1;" vector-effect="non-scaling-stroke"  transform=" translate(-680.27, -1055.41)" d="M 1059.433594 1055.40625 C 1059.433594 1128.703125 889.628906 1187.761719 680.273438 1187.761719 C 470.917969 1187.761719 301.113281 1128.175781 301.113281 1055.40625 C 301.113281 982.109375 470.917969 923.050781 680.273438 923.050781 C 889.628906 923.050781 1059.433594 982.109375 1059.433594 1055.40625 Z M 1059.433594 1055.40625" stroke-linecap="round" />
</g>
		<g transform="matrix(1 0 0 1 -427.77 7.38)" id="xu_NyX0QX9CuATNBBj-8_"  >
<path style="stroke: none; stroke-width: 1; stroke-dasharray: none; stroke-linecap: butt; stroke-dashoffset: 0; stroke-linejoin: miter; stroke-miterlimit: 4; fill: rgb(155,219,239); fill-rule: nonzero; opacity: 1;" vector-effect="non-scaling-stroke"  transform=" translate(-247.23, -692.88)" d="M 247.324219 665.726562 L 236.25 703.691406 C 236.25 703.691406 233.613281 717.402344 246.269531 720.039062 C 259.980469 719.511719 258.925781 706.855469 257.871094 703.164062 Z M 247.324219 665.726562" stroke-linecap="round" />
</g>
		<g transform="matrix(1 0 0 1 0 -163.7)" id="oL_nDZoITvrA1f6Red4WJ"  >
<path style="stroke: none; stroke-width: 1; stroke-dasharray: none; stroke-linecap: butt; stroke-dashoffset: 0; stroke-linejoin: miter; stroke-miterlimit: 4; fill: rgb(0,0,0); fill-rule: nonzero; opacity: 1;" vector-effect="non-scaling-stroke"  transform=" translate(-675, -521.8)" d="M 1348.945312 505.953125 L 1350 501.207031 C 1238.730469 479.058594 1124.824219 478.53125 1055.742188 481.695312 C 1066.816406 441.09375 1070.507812 393.636719 1070.507812 341.433594 C 1070.507812 266.027344 1042.03125 205.914062 996.679688 160.566406 C 1004.589844 134.726562 1015.136719 77.25 986.132812 3.953125 C 986.132812 3.953125 934.453125 -12.390625 816.855469 66.175781 C 770.976562 54.578125 721.933594 48.777344 672.890625 48.777344 C 619.101562 48.777344 564.785156 55.632812 513.632812 69.339844 C 392.34375 -13.445312 339.082031 3.425781 339.082031 3.425781 C 304.277344 90.433594 325.898438 155.292969 332.226562 171.113281 C 291.09375 215.40625 266.308594 271.828125 266.308594 340.90625 C 266.308594 393.109375 272.109375 440.039062 286.875 480.640625 C 217.265625 478.003906 107.578125 479.058594 0 500.679688 L 1.054688 505.425781 C 108.632812 483.804688 219.375 483.277344 288.457031 485.914062 C 291.621094 494.351562 295.3125 502.789062 299.003906 510.699219 C 230.449219 512.808594 113.90625 521.769531 2.109375 553.410156 L 3.691406 558.15625 C 116.542969 526.515625 234.140625 518.078125 302.167969 515.96875 C 343.300781 591.902344 423.457031 641.46875 566.894531 656.761719 C 546.328125 670.472656 525.761719 693.671875 517.324219 733.222656 C 489.375 746.402344 401.835938 779.097656 349.101562 688.398438 C 349.101562 688.398438 319.570312 634.613281 263.144531 630.394531 C 263.144531 630.394531 208.300781 629.339844 259.453125 664.671875 C 259.453125 664.671875 295.839844 682.074219 321.152344 746.929688 C 321.152344 746.929688 354.375 857.664062 513.105469 821.808594 L 513.105469 935.179688 C 513.105469 935.179688 509.941406 975.78125 472.5 988.964844 C 472.5 988.964844 450.351562 1004.257812 474.082031 1012.695312 C 474.082031 1012.695312 576.914062 1021.132812 576.914062 936.761719 L 576.914062 812.316406 C 576.914062 812.316406 572.695312 762.75 596.953125 745.875 L 596.953125 950.472656 C 596.953125 950.472656 595.371094 999.511719 570.058594 1017.96875 C 570.058594 1017.96875 553.183594 1048.023438 590.097656 1040.113281 C 590.097656 1040.113281 660.761719 1030.09375 663.925781 947.308594 L 665.507812 740.078125 L 682.382812 740.078125 L 683.964844 947.308594 C 687.128906 1029.566406 757.792969 1040.113281 757.792969 1040.113281 C 794.707031 1048.550781 777.832031 1017.96875 777.832031 1017.96875 C 752.519531 999.511719 750.9375 950.472656 750.9375 950.472656 L 750.9375 747.457031 C 775.195312 766.441406 770.976562 812.316406 770.976562 812.316406 L 770.976562 936.761719 C 770.976562 1021.132812 873.808594 1012.695312 873.808594 1012.695312 C 897.539062 1004.257812 875.390625 988.964844 875.390625 988.964844 C 838.476562 975.253906 834.785156 935.179688 834.785156 935.179688 L 834.785156 771.714844 C 834.785156 707.910156 807.890625 674.164062 781.523438 656.761719 C 934.453125 641.46875 1007.753906 592.429688 1041.503906 515.441406 C 1108.476562 517.023438 1229.238281 525.460938 1344.199219 558.15625 L 1345.78125 553.410156 C 1231.347656 521.242188 1111.640625 512.808594 1043.613281 510.699219 C 1046.777344 502.789062 1049.414062 494.878906 1052.050781 486.441406 C 1122.714844 483.804688 1237.148438 483.804688 1348.945312 505.953125 Z M 1348.945312 505.953125" stroke-linecap="round" />
</g>
		<g transform="matrix(1 0 0 1 -3.69 -217.46)" id="Fs_Xox_qH2vSm4RjXclbp"  >
<path style="stroke: none; stroke-width: 1; stroke-dasharray: none; stroke-linecap: butt; stroke-dashoffset: 0; stroke-linejoin: miter; stroke-miterlimit: 4; fill: rgb(244,204,178); fill-rule: nonzero; opacity: 1;" vector-effect="non-scaling-stroke"  transform=" translate(-671.31, -468.04)" d="M 920.742188 337.742188 C 953.4375 367.796875 972.949219 403.652344 972.949219 442.148438 C 972.949219 623.542969 837.949219 628.289062 671.308594 628.289062 C 504.667969 628.289062 369.667969 602.976562 369.667969 442.148438 C 369.667969 403.652344 388.652344 367.796875 421.347656 338.269531 C 475.664062 288.699219 567.421875 315.066406 671.308594 315.066406 C 775.195312 315.066406 866.425781 288.171875 920.742188 337.742188 Z M 920.742188 337.742188" stroke-linecap="round" />
</g>
		<g transform="matrix(1 0 0 1 -166.64 -233.86)" id="9sNX8xDPA0bC4LDn9C4Vk"  >
<path style="stroke: none; stroke-width: 1; stroke-dasharray: none; stroke-linecap: butt; stroke-dashoffset: 0; stroke-linejoin: miter; stroke-miterlimit: 4; fill: rgb(255,255,255); fill-rule: nonzero; opacity: 1;" vector-effect="non-scaling-stroke"  transform=" translate(-508.36, -451.64)" d="M 571.113281 451.640625 C 571.113281 501.734375 543.164062 541.808594 508.359375 541.808594 C 473.554688 541.808594 445.605469 501.207031 445.605469 451.640625 C 445.605469 401.542969 473.554688 361.46875 508.359375 361.46875 C 543.164062 360.941406 571.113281 401.542969 571.113281 451.640625 Z M 571.113281 451.640625" stroke-linecap="round" />
</g>
		<g transform="matrix(1 0 0 1 -165.59 -232.8)" id="wiPJ8yn6YRV2nhxTltd_E"  >
<path style="stroke: none; stroke-width: 1; stroke-dasharray: none; stroke-linecap: butt; stroke-dashoffset: 0; stroke-linejoin: miter; stroke-miterlimit: 4; fill: rgb(173,91,79); fill-rule: nonzero; opacity: 1;" vector-effect="non-scaling-stroke"  transform=" translate(-509.41, -452.7)" d="M 551.074219 452.695312 C 551.074219 485.914062 532.089844 512.808594 509.414062 512.808594 C 486.210938 512.808594 467.753906 485.914062 467.753906 452.695312 C 467.753906 419.472656 486.738281 392.582031 509.414062 392.582031 C 532.089844 392.582031 551.074219 419.472656 551.074219 452.695312 Z M 551.074219 452.695312" stroke-linecap="round" />
</g>
		<g transform="matrix(1 0 0 1 170.33 -233.86)" id="9_SHzszp2ZxVFSIz1qKN-"  >
<path style="stroke: none; stroke-width: 1; stroke-dasharray: none; stroke-linecap: butt; stroke-dashoffset: 0; stroke-linejoin: miter; stroke-miterlimit: 4; fill: rgb(255,255,255); fill-rule: nonzero; opacity: 1;" vector-effect="non-scaling-stroke"  transform=" translate(-845.33, -451.64)" d="M 908.085938 451.640625 C 908.085938 501.734375 880.136719 541.808594 845.332031 541.808594 C 810.527344 541.808594 782.578125 501.207031 782.578125 451.640625 C 782.578125 401.542969 810.527344 361.46875 845.332031 361.46875 C 879.609375 360.941406 908.085938 401.542969 908.085938 451.640625 Z M 908.085938 451.640625" stroke-linecap="round" />
</g>
		<g transform="matrix(1 0 0 1 170.86 -232.8)" id="KRyzt4Ydigyi_PZCvYZk2"  >
<path style="stroke: none; stroke-width: 1; stroke-dasharray: none; stroke-linecap: butt; stroke-dashoffset: 0; stroke-linejoin: miter; stroke-miterlimit: 4; fill: rgb(173,91,79); fill-rule: nonzero; opacity: 1;" vector-effect="non-scaling-stroke"  transform=" translate(-845.86, -452.7)" d="M 887.519531 452.695312 C 887.519531 485.914062 868.535156 512.808594 845.859375 512.808594 C 822.65625 512.808594 804.199219 485.914062 804.199219 452.695312 C 804.199219 419.472656 823.183594 392.582031 845.859375 392.582031 C 869.0625 392.582031 887.519531 419.472656 887.519531 452.695312 Z M 887.519531 452.695312" stroke-linecap="round" />
</g>
		<g transform="matrix(1 0 0 1 -2.64 -153.71)" id="G4VrTY3B3qke6WuXXKCut"  >
<path style="stroke: none; stroke-width: 1; stroke-dasharray: none; stroke-linecap: butt; stroke-dashoffset: 0; stroke-linejoin: miter; stroke-miterlimit: 4; fill: rgb(173,91,79); fill-rule: nonzero; opacity: 1;" vector-effect="non-scaling-stroke"  transform=" translate(-672.36, -531.79)" d="M 688.183594 531.789062 C 688.183594 540.226562 681.328125 547.609375 672.363281 547.609375 C 663.925781 547.609375 656.542969 540.753906 656.542969 531.789062 C 656.542969 522.824219 663.398438 515.96875 672.363281 515.96875 C 680.800781 515.96875 688.183594 522.824219 688.183594 531.789062 Z M 688.183594 531.789062" stroke-linecap="round" />
</g>
		<g transform="matrix(1 0 0 1 -2.64 -104.57)" id="UrUpTWSZ_a6lpI_7tEqps"  >
<path style="stroke: none; stroke-width: 1; stroke-dasharray: none; stroke-linecap: butt; stroke-dashoffset: 0; stroke-linejoin: miter; stroke-miterlimit: 4; fill: rgb(173,91,79); fill-rule: nonzero; opacity: 1;" vector-effect="non-scaling-stroke"  transform=" translate(-672.36, -580.93)" d="M 635.976562 571.335938 C 634.921875 568.703125 636.503906 566.066406 639.140625 565.011719 C 641.777344 563.957031 644.414062 565.539062 645.46875 568.175781 C 649.6875 579.773438 660.234375 587.15625 672.363281 587.15625 C 684.492188 587.15625 695.039062 579.246094 699.257812 568.175781 C 700.3125 565.539062 702.949219 563.957031 705.585938 565.011719 C 708.222656 566.066406 709.804688 568.703125 708.75 571.335938 C 703.476562 586.628906 688.710938 597.175781 672.363281 597.175781 C 656.015625 597.175781 641.25 586.628906 635.976562 571.335938 Z M 635.976562 571.335938" stroke-linecap="round" />
</g>
		<g transform="matrix(1 0 0 1 -398.67 -42.45)" id="Df1O0SCXSarSI1OzMaXxg"  >
<path style="stroke: none; stroke-width: 1; stroke-dasharray: none; stroke-linecap: butt; stroke-dashoffset: 0; stroke-linejoin: miter; stroke-miterlimit: 4; fill: rgb(193,226,216); fill-rule: nonzero; opacity: 1;" vector-effect="non-scaling-stroke"  transform=" translate(-276.33, -643.05)" d="M 287.402344 643.050781 C 287.402344 647.269531 282.65625 650.433594 276.328125 650.433594 C 270.527344 650.433594 265.253906 647.269531 265.253906 643.050781 C 265.253906 638.832031 270 635.667969 276.328125 635.667969 C 282.65625 635.667969 287.402344 638.832031 287.402344 643.050781 Z M 287.402344 643.050781" stroke-linecap="round" />
</g>
		<g transform="matrix(1 0 0 1 -368.09 -25.57)" id="_z56HK5AUSPgTtud7RfsW"  >
<path style="stroke: none; stroke-width: 1; stroke-dasharray: none; stroke-linecap: butt; stroke-dashoffset: 0; stroke-linejoin: miter; stroke-miterlimit: 4; fill: rgb(193,226,216); fill-rule: nonzero; opacity: 1;" vector-effect="non-scaling-stroke"  transform=" translate(-306.91, -659.93)" d="M 317.988281 659.925781 C 317.988281 664.144531 313.242188 667.308594 306.914062 667.308594 C 301.113281 667.308594 295.839844 664.144531 295.839844 659.925781 C 295.839844 655.707031 300.585938 652.542969 306.914062 652.542969 C 313.242188 652.542969 317.988281 655.707031 317.988281 659.925781 Z M 317.988281 659.925781" stroke-linecap="round" />
</g>
		<g transform="matrix(1 0 0 1 -349.63 -3.45)" id="SIWuzMp7CBzJS7gCm8gVH"  >
<path style="stroke: none; stroke-width: 1; stroke-dasharray: none; stroke-linecap: butt; stroke-dashoffset: 0; stroke-linejoin: miter; stroke-miterlimit: 4; fill: rgb(193,226,216); fill-rule: nonzero; opacity: 1;" vector-effect="non-scaling-stroke"  transform=" translate(-325.37, -682.05)" d="M 336.445312 682.074219 C 336.445312 686.289062 331.699219 689.453125 325.371094 689.453125 C 319.570312 689.453125 314.296875 686.289062 314.296875 682.074219 C 314.296875 677.855469 319.042969 674.691406 325.371094 674.691406 C 331.699219 674.164062 336.445312 677.855469 336.445312 682.074219 Z M 336.445312 682.074219" stroke-linecap="round" />
</g>
		<g transform="matrix(1 0 0 1 -332.75 21.86)" id="t0UfI2pqDu3JwXjmsh12W"  >
<path style="stroke: none; stroke-width: 1; stroke-dasharray: none; stroke-linecap: butt; stroke-dashoffset: 0; stroke-linejoin: miter; stroke-miterlimit: 4; fill: rgb(193,226,216); fill-rule: nonzero; opacity: 1;" vector-effect="non-scaling-stroke"  transform=" translate(-342.25, -707.36)" d="M 353.320312 707.382812 C 353.320312 711.601562 348.574219 714.765625 342.246094 714.765625 C 336.445312 714.765625 331.171875 711.601562 331.171875 707.382812 C 331.171875 703.164062 335.917969 700 342.246094 700 C 348.574219 699.472656 353.320312 703.164062 353.320312 707.382812 Z M 353.320312 707.382812" stroke-linecap="round" />
</g>
		<g transform="matrix(1 0 0 1 -314.3 45.09)" id="beV93GvRqo4ngkQpCgxER"  >
<path style="stroke: none; stroke-width: 1; stroke-dasharray: none; stroke-linecap: butt; stroke-dashoffset: 0; stroke-linejoin: miter; stroke-miterlimit: 4; fill: rgb(193,226,216); fill-rule: nonzero; opacity: 1;" vector-effect="non-scaling-stroke"  transform=" translate(-360.7, -730.59)" d="M 371.777344 730.585938 C 371.777344 734.804688 367.03125 737.96875 360.703125 737.96875 C 354.902344 737.96875 349.628906 734.804688 349.628906 730.585938 C 349.628906 726.367188 354.375 723.203125 360.703125 723.203125 C 367.03125 723.203125 371.777344 726.367188 371.777344 730.585938 Z M 371.777344 730.585938" stroke-linecap="round" />
</g>
		<g transform="matrix(1 0 0 1 -288.98 65.62)" id="15_q0WpVD1wmRcYxUqVJK"  >
<path style="stroke: none; stroke-width: 1; stroke-dasharray: none; stroke-linecap: butt; stroke-dashoffset: 0; stroke-linejoin: miter; stroke-miterlimit: 4; fill: rgb(193,226,216); fill-rule: nonzero; opacity: 1;" vector-effect="non-scaling-stroke"  transform=" translate(-386.02, -751.12)" d="M 397.089844 751.148438 C 397.089844 755.367188 392.34375 758.53125 386.015625 758.53125 C 380.214844 758.53125 374.941406 755.367188 374.941406 751.148438 C 374.941406 746.929688 379.6875 743.765625 386.015625 743.765625 C 392.34375 743.238281 397.089844 746.929688 397.089844 751.148438 Z M 397.089844 751.148438" stroke-linecap="round" />
</g>
		<g transform="matrix(1 0 0 1 -253.65 78.83)" id="TKMt5jOOdaosS3kSWALr0"  >
<path style="stroke: none; stroke-width: 1; stroke-dasharray: none; stroke-linecap: butt; stroke-dashoffset: 0; stroke-linejoin: miter; stroke-miterlimit: 4; fill: rgb(193,226,216); fill-rule: nonzero; opacity: 1;" vector-effect="non-scaling-stroke"  transform=" translate(-421.35, -764.33)" d="M 432.421875 764.332031 C 432.421875 768.550781 427.675781 771.714844 421.347656 771.714844 C 415.546875 771.714844 410.273438 768.550781 410.273438 764.332031 C 410.273438 760.113281 415.019531 756.949219 421.347656 756.949219 C 427.675781 756.949219 432.421875 760.113281 432.421875 764.332031 Z M 432.421875 764.332031" stroke-linecap="round" />
</g>
		<g transform="matrix(1 0 0 1 -218.32 78.83)" id="oNkzFdKdxsX6uYZbO3kFe"  >
<path style="stroke: none; stroke-width: 1; stroke-dasharray: none; stroke-linecap: butt; stroke-dashoffset: 0; stroke-linejoin: miter; stroke-miterlimit: 4; fill: rgb(193,226,216); fill-rule: nonzero; opacity: 1;" vector-effect="non-scaling-stroke"  transform=" translate(-456.68, -764.33)" d="M 467.753906 764.332031 C 467.753906 768.550781 463.007812 771.714844 456.679688 771.714844 C 450.878906 771.714844 445.605469 768.550781 445.605469 764.332031 C 445.605469 760.113281 450.351562 756.949219 456.679688 756.949219 C 463.007812 756.949219 467.753906 760.113281 467.753906 764.332031 Z M 467.753906 764.332031" stroke-linecap="round" />
</g>
		<g transform="matrix(1 0 0 1 -182.46 73.03)" id="5cyBjnn--xtT9iMpDe9kL"  >
<path style="stroke: none; stroke-width: 1; stroke-dasharray: none; stroke-linecap: butt; stroke-dashoffset: 0; stroke-linejoin: miter; stroke-miterlimit: 4; fill: rgb(193,226,216); fill-rule: nonzero; opacity: 1;" vector-effect="non-scaling-stroke"  transform=" translate(-492.54, -758.53)" d="M 503.613281 758.53125 C 503.613281 762.75 498.867188 765.914062 492.539062 765.914062 C 486.738281 765.914062 481.464844 762.75 481.464844 758.53125 C 481.464844 754.3125 486.210938 751.148438 492.539062 751.148438 C 498.339844 751.148438 503.613281 754.3125 503.613281 758.53125 Z M 503.613281 758.53125" stroke-linecap="round" />
</g>
</g>
</g>
</svg>